PathFileType  4	(X/Y/Z)
DataRate	CameraRate	NumFrames	NumMarkers	Units	OrigDataRate	OrigDataStartFrame	OrigNumFrames
  200.0 	  200.0 	   4 	     50 	mm 	  200.0 	      302 	   1204
Frame#	Time	R.Shoulder			R.Clavicle			R.Bicep			R.Elbow			R.Forearm			R.Wrist			L.Shoulder			L.Clavicle			L.Scapula			L.Bicep			L.Elbow			L.Forearm			L.Wrist			R.ASIS			R.PSIS			S2			L.PSIS			L.ASIS			R.TH1			R.TH2			R.TH3			R.Knee			R.SH1			R.SH2			R.SH3			R.SH4			R.Ankle			R.Heel			R.MT5			L.TH1			L.TH2			L.TH3			L.TH4			L.Knee			L.SH1			L.SH2			L.SH3			L.Ankle			L.Heel			L.MT5			R.Melb			R.GTR			R.Mkn			R.Man			R.MT0			L.Melb			L.GTR			L.Mkn			L.Man			L.MT0			
		X1	Y1	Z1	X2	Y2	Z2	X3	Y3	Z3	X4	Y4	Z4	X5	Y5	Z5	X6	Y6	Z6	X7	Y7	Z7	X8	Y8	Z8	X9	Y9	Z9	X10	Y10	Z10	X11	Y11	Z11	X12	Y12	Z12	X13	Y13	Z13	X14	Y14	Z14	X15	Y15	Z15	X16	Y16	Z16	X17	Y17	Z17	X18	Y18	Z18	X19	Y19	Z19	X20	Y20	Z20	X21	Y21	Z21	X22	Y22	Z22	X23	Y23	Z23	X24	Y24	Z24	X25	Y25	Z25	X26	Y26	Z26	X27	Y27	Z27	X28	Y28	Z28	X29	Y29	Z29	X30	Y30	Z30	X31	Y31	Z31	X32	Y32	Z32	X33	Y33	Z33	X34	Y34	Z34	X35	Y35	Z35	X36	Y36	Z36	X37	Y37	Z37	X38	Y38	Z38	X39	Y39	Z39	X40	Y40	Z40	X41	Y41	Z41	X42	Y42	Z42	X43	Y43	Z43	X44	Y44	Z44	X45	Y45	Z45	X46	Y46	Z46	X47	Y47	Z47	X48	Y48	Z48	X49	Y49	Z49	X50	Y50	Z50	

302	1.50500	536.163	1606.413	-1932.279	616.771	1600.563	-2081.859	586.256	1398.745	-1883.624	470.007	1307.876	-1850.042	551.209	1249.777	-1761.812	504.051	1135.254	-1729.935	571.092	1608.945	-2308.853	626.331	1600.928	-2139.339	444.241	1575.190	-2214.953	613.945	1453.308	-2354.580	517.487	1315.112	-2411.781	582.772	1252.710	-2479.625	547.167	1133.759	-2503.268	659.176	1151.238	-1986.282	428.366	1226.791	-2067.863	422.305	1220.090	-2119.008	434.124	1229.054	-2173.926	657.574	1140.223	-2242.237	596.522	945.244	-1905.689	446.168	959.082	-1934.936	442.473	884.104	-1942.204	495.032	736.544	-1913.001	519.728	604.224	-1880.519	519.823	529.546	-1887.472	410.213	610.259	-1928.625	408.819	533.823	-1924.241	481.940	333.256	-1893.883	416.036	299.476	-1943.488	601.312	276.257	-1863.801	600.654	907.401	-2311.768	603.959	826.250	-2298.844	452.913	908.159	-2305.506	447.134	831.606	-2300.409	498.392	727.352	-2312.706	540.215	641.705	-2333.976	429.521	642.720	-2319.790	424.369	567.083	-2335.912	505.386	338.181	-2357.417	421.694	297.066	-2325.748	604.820	278.591	-2384.150	537.236	1274.882	-1925.429	538.130	1094.351	-1892.245	510.996	693.983	-2077.549	506.542	337.215	-1984.794	618.433	279.266	-1978.563	590.727	1270.113	-2320.728	527.924	1112.312	-2323.647	500.461	695.185	-2145.374	511.321	333.901	-2261.863	624.111	279.294	-2261.484
303	1.51000	536.199	1606.413	-1932.284	616.790	1600.554	-2081.869	586.265	1398.718	-1883.643	470.004	1307.879	-1850.045	551.232	1249.762	-1761.842	504.092	1135.255	-1729.953	571.138	1608.944	-2308.856	626.357	1600.917	-2139.342	444.249	1575.199	-2214.944	613.977	1453.314	-2354.579	517.548	1315.107	-2411.788	582.806	1252.719	-2479.634	547.198	1133.756	-2503.283	659.200	1151.231	-1986.294	428.369	1226.791	-2067.863	422.302	1220.092	-2119.000	434.144	1229.052	-2173.945	657.581	1140.221	-2242.240	596.491	945.245	-1905.672	446.173	959.084	-1934.924	442.481	884.115	-1942.192	495.047	736.550	-1912.989	519.716	604.222	-1880.548	519.823	529.545	-1887.475	410.225	610.257	-1928.629	408.821	533.824	-1924.238	481.943	333.253	-1893.883	416.037	299.477	-1943.486	601.320	276.250	-1863.798	600.665	907.400	-2311.772	603.974	826.249	-2298.846	452.928	908.155	-2305.487	447.128	831.611	-2300.415	498.398	727.350	-2312.706	540.218	641.704	-2333.974	429.521	642.721	-2319.795	424.371	567.085	-2335.911	505.388	338.180	-2357.418	421.697	297.068	-2325.750	604.822	278.591	-2384.150	537.246	1274.878	-1925.465	538.185	1094.344	-1892.245	511.001	693.981	-2077.549	506.548	337.220	-1984.793	618.417	279.262	-1978.559	590.708	1270.103	-2320.752	527.912	1112.315	-2323.672	500.444	695.183	-2145.386	511.324	333.904	-2261.844	624.113	279.293	-2261.481
304	1.51500	536.233	1606.413	-1932.288	616.808	1600.544	-2081.878	586.273	1398.691	-1883.663	470.001	1307.882	-1850.050	551.256	1249.746	-1761.875	504.134	1135.252	-1729.975	571.184	1608.942	-2308.860	626.383	1600.905	-2139.345	444.257	1575.211	-2214.937	614.006	1453.319	-2354.579	517.610	1315.102	-2411.797	582.838	1252.725	-2479.642	547.226	1133.753	-2503.295	659.221	1151.224	-1986.311	428.372	1226.790	-2067.864	422.295	1220.095	-2118.994	434.162	1229.050	-2173.965	657.586	1140.220	-2242.242	596.455	945.245	-1905.651	446.179	959.086	-1934.912	442.489	884.127	-1942.181	495.063	736.555	-1912.978	519.700	604.218	-1880.583	519.822	529.545	-1887.477	410.237	610.255	-1928.635	408.823	533.826	-1924.235	481.946	333.251	-1893.883	416.037	299.477	-1943.484	601.327	276.242	-1863.796	600.675	907.400	-2311.776	603.989	826.249	-2298.847	452.940	908.150	-2305.468	447.123	831.617	-2300.420	498.404	727.348	-2312.706	540.220	641.703	-2333.972	429.520	642.722	-2319.800	424.373	567.088	-2335.910	505.390	338.179	-2357.419	421.699	297.070	-2325.750	604.825	278.591	-2384.150	537.255	1274.875	-1925.500	538.240	1094.338	-1892.246	511.006	693.978	-2077.549	506.555	337.225	-1984.793	618.400	279.260	-1978.555	590.689	1270.093	-2320.774	527.899	1112.317	-2323.698	500.428	695.181	-2145.397	511.328	333.907	-2261.823	624.115	279.293	-2261.479
305	1.52000	536.264	1606.412	-1932.293	616.826	1600.536	-2081.886	586.282	1398.662	-1883.684	469.998	1307.885	-1850.055	551.279	1249.729	-1761.912	504.177	1135.246	-1730.001	571.227	1608.940	-2308.864	626.410	1600.894	-2139.349	444.266	1575.226	-2214.930	614.033	1453.324	-2354.578	517.672	1315.098	-2411.808	582.868	1252.728	-2479.649	547.252	1133.750	-2503.305	659.239	1151.216	-1986.331	428.375	1226.789	-2067.865	422.284	1220.097	-2118.990	434.179	1229.047	-2173.986	657.592	1140.218	-2242.244	596.412	945.246	-1905.627	446.185	959.086	-1934.900	442.497	884.138	-1942.172	495.080	736.561	-1912.966	519.680	604.214	-1880.627	519.822	529.544	-1887.479	410.248	610.253	-1928.642	408.825	533.828	-1924.231	481.950	333.248	-1893.883	416.038	299.478	-1943.481	601.335	276.234	-1863.795	600.686	907.398	-2311.779	604.003	826.249	-2298.848	452.952	908.145	-2305.449	447.118	831.623	-2300.425	498.409	727.346	-2312.706	540.222	641.702	-2333.970	429.520	642.724	-2319.806	424.376	567.090	-2335.909	505.391	338.179	-2357.420	421.701	297.072	-2325.750	604.828	278.590	-2384.149	537.264	1274.873	-1925.535	538.297	1094.332	-1892.246	511.011	693.976	-2077.549	506.562	337.230	-1984.793	618.383	279.257	-1978.550	590.670	1270.083	-2320.793	527.884	1112.319	-2323.726	500.413	695.179	-2145.407	511.331	333.910	-2261.802	624.117	279.294	-2261.477
